HIERARCHY
ROOT Hips
{
  OFFSET 57.8838 95.319 338.509
  CHANNELS 6 Xposition Yposition Zposition Zrotation Xrotation Yrotation
  JOINT LeftUpLeg
  {
    OFFSET 8.64259 1.95398 -2.38835
    CHANNELS 3 Zrotation Xrotation Yrotation
    JOINT LeftLeg
    {
      OFFSET 43.7702 0 0
      CHANNELS 3 Zrotation Xrotation Yrotation
      JOINT LeftFoot
      {
        OFFSET 40.6238 0 0
        CHANNELS 3 Zrotation Xrotation Yrotation
        JOINT LeftToeBase
        {
          OFFSET 12.7242 0 0
          CHANNELS 3 Zrotation Xrotation Yrotation
          End Site
          {
            OFFSET 0 0 0
          }
        }
      }
    }
  }
  JOINT RightUpLeg
  {
    OFFSET -8.2249 1.95398 -2.59336
    CHANNELS 3 Zrotation Xrotation Yrotation
    JOINT RightLeg
    {
      OFFSET 43.5653 0 0
      CHANNELS 3 Zrotation Xrotation Yrotation
      JOINT RightFoot
      {
        OFFSET 40.6238 0 0
        CHANNELS 3 Zrotation Xrotation Yrotation
        JOINT RightToeBase
        {
          OFFSET 12.7242 0 0
          CHANNELS 3 Zrotation Xrotation Yrotation
          End Site
          {
            OFFSET 0 0 0
          }
        }
      }
    }
  }
  JOINT Spine
  {
    OFFSET 0.165834 0.87714 6.61349
    CHANNELS 3 Zrotation Xrotation Yrotation
    JOINT Spine1
    {
      OFFSET 7.38963 1.71661e-005 0
      CHANNELS 3 Zrotation Xrotation Yrotation
      JOINT Spine2
      {
        OFFSET 11.9445 1.14441e-005 0
        CHANNELS 3 Zrotation Xrotation Yrotation
        JOINT Spine3
        {
          OFFSET 14.7254 4.19617e-005 0
          CHANNELS 3 Zrotation Xrotation Yrotation
          JOINT Spine4
          {
            OFFSET 10.9679 0 0
            CHANNELS 3 Zrotation Xrotation Yrotation
            JOINT RightShoulder
            {
              OFFSET 2.46616 -1.6653 3.69651
              CHANNELS 3 Zrotation Xrotation Yrotation
              JOINT RightArm
              {
                OFFSET 13.0012 0 0
                CHANNELS 3 Zrotation Xrotation Yrotation
                JOINT RightForeArm
                {
                  OFFSET 28.7848 1.62311e-005 0
                  CHANNELS 3 Zrotation Xrotation Yrotation
                  JOINT RightHand
                  {
                    OFFSET 26.5688 1.62095e-005 0
                    CHANNELS 3 Zrotation Xrotation Yrotation
                    End Site
                    {
                      OFFSET 0 0 0
                    }
                  }
                }
              }
            }
            JOINT LeftShoulder
            {
              OFFSET 2.38034 -1.29275 -3.7523
              CHANNELS 3 Zrotation Xrotation Yrotation
              JOINT LeftArm
              {
                OFFSET 16.3182 6.07031e-005 0
                CHANNELS 3 Zrotation Xrotation Yrotation
                JOINT LeftForeArm
                {
                  OFFSET 27.0901 0 0
                  CHANNELS 3 Zrotation Xrotation Yrotation
                  JOINT LeftHand
                  {
                    OFFSET 24.5451 1.51738e-005 0
                    CHANNELS 3 Zrotation Xrotation Yrotation
                    End Site
                    {
                      OFFSET 0 0 0
                    }
                  }
                }
              }
            }
            JOINT Neck
            {
              OFFSET 5.0226 -0.0266342 0
              CHANNELS 3 Zrotation Xrotation Yrotation
              JOINT Head
              {
                OFFSET 6.69364 2.86102e-005 0
                CHANNELS 3 Zrotation Xrotation Yrotation
                End Site
                {
                  OFFSET 0 0 0
                }
              }
            }
          }
        }
      }
    }
  }
}
MOTION
Frames:	18
Frame Time:	0.0416667
-1.10922 11.7841 -56.5196 169.447 3.42942 173.992 -152.079 17.4627 98.6345 -42.7382 -14.747 -11.9293 48.304 -12.4466 -9.90844 18.8789 -6.78105 15.7513 168.796 4.60182 83.9842 -17.6214 17.372 1.41017 56.6976 20.5872 16.0841 18.9566 13.9777 -3.0475 -1.01575 7.79734 -90.7176 11.2668 -2.35545 -1.19546 -0.402441 -2.40577 -1.09059 -22.9451 -1.88731 -1.84817 -2.9325 -1.8873 -1.84818 103.047 15.3566 -75.6929 86.0751 -25.8972 -8.994 8.42019 -47.9713 0.00731818 -9.90034 -0.904802 5.87763 -74.6029 -11.6438 105.51 -85.6479 -22.524 -15.2653 -161.943 85.3384 179.692 -1.08452 0.0540536 -9.13496 37.3904 7.08562 9.16549 -25.2472 2.50774 -0.70424 
-1.01008 11.7874 -56.5004 169.003 3.35997 173.953 -152.058 17.5887 98.5285 -42.7185 -14.3423 -11.9611 48.1221 -12.6084 -9.79286 20.0003 -6.16716 15.9967 168.544 4.70504 83.7653 -17.7479 17.1772 1.71328 56.8303 20.4626 15.7582 18.9975 13.928 -3.07375 -1.05461 7.78578 -90.7152 11.2899 -2.43171 -1.18243 -0.379263 -2.48139 -1.07422 -22.923 -1.96396 -1.8587 -2.91035 -1.96395 -1.8587 103.048 15.3467 -75.6859 86.0438 -26.0328 -8.81358 8.40932 -47.7438 0.00728614 -9.80943 -0.897399 5.87592 -74.6035 -11.6044 105.515 -85.6258 -22.4933 -15.2675 -162.025 85.5471 179.678 -1.17102 0.0581884 -9.02017 37.5204 7.20409 9.0469 -25.531 2.68911 -0.806482 
-1.00181 11.8177 -56.5161 168.866 3.34838 173.984 -152.119 17.6148 98.532 -42.79 -14.4908 -11.9886 48.2709 -12.5517 -10.116 20.1885 -6.16183 16.6096 168.509 4.50291 83.7422 -17.4072 17.6145 1.69929 56.3398 20.8922 15.9979 19.448 13.31 -3.13359 -1.06108 7.78026 -90.7202 11.3008 -2.44693 -1.19056 -0.36831 -2.49696 -1.08167 -22.9122 -1.97604 -1.87102 -2.89952 -1.97603 -1.87102 103.044 15.3185 -75.73 86.0951 -25.9745 -8.64325 8.34275 -47.9021 0.00730839 -9.66553 -0.888027 5.92448 -74.6537 -11.6133 105.378 -85.6242 -22.5658 -15.1162 -162.067 84.7055 179.729 -1.21385 0.0582318 -9.11349 37.5186 7.15119 9.15169 -25.6005 2.63553 -1.02739 
-1.09781 11.793 -56.5145 169.369 3.49142 173.972 -152.033 17.469 98.6712 -42.9467 -14.7425 -12.0009 48.7738 -12.1247 -10.256 20.0195 -6.36027 17.1735 168.494 4.4801 83.7121 -17.5548 17.8697 1.6349 56.1398 20.9683 16.3389 19.2264 13.5771 -2.97545 -1.01542 7.81293 -90.7149 11.2357 -2.3534 -1.19116 -0.433542 -2.40354 -1.0864 -22.9763 -1.88665 -1.84346 -2.96362 -1.88664 -1.84346 103.043 15.3086 -75.7404 86.1524 -25.9715 -8.57893 8.36708 -47.9489 0.00731502 -9.72505 -0.915575 6.18667 -74.6902 -11.6276 105.278 -85.3045 -22.3696 -14.7469 -162.525 85.8768 179.652 -0.105236 0.0238876 -8.46268 37.5416 7.35184 9.14046 -25.4855 2.8141 -0.952573 
-1.14522 11.7964 -56.5431 169.573 3.43674 174.077 -151.939 17.5023 98.8122 -42.8312 -14.6249 -12.0328 48.6198 -12.2653 -10.0817 20.1886 -6.21974 16.9483 168.866 4.41082 84.0519 -17.3152 18.3726 1.22909 56.2492 20.9535 16.4147 19.0776 13.8736 -3.27284 -1.02863 7.80532 -90.7233 11.2507 -2.38367 -1.2045 -0.418574 -2.43437 -1.0984 -22.9615 -1.91151 -1.86529 -2.94887 -1.9115 -1.8653 103.023 15.2261 -75.9407 86.149 -25.834 -8.76161 8.35279 -48.1038 0.00733703 -10.1168 -0.937175 6.00039 -74.65 -11.584 105.393 -85.321 -22.7379 -14.6945 -162.393 84.8126 179.724 -1.68587 0.0736462 -9.08774 37.448 7.46572 9.15479 -25.3386 2.9168 -0.9163 
-1.14903 11.8212 -56.5357 169.418 3.19592 174.26 -152.083 17.8545 98.8731 -42.8421 -14.6888 -11.9829 48.0936 -12.7845 -10.1396 20.6928 -5.84009 16.4819 169.066 4.44134 84.3578 -17.046 18.755 1.13305 56.3049 20.7943 16.0717 18.9549 14.1057 -3.46953 -1.03778 7.77387 -90.7494 11.3128 -2.41427 -1.25161 -0.356389 -2.46701 -1.1441 -22.8992 -1.92654 -1.9194 -2.88655 -1.92654 -1.9194 103.034 15.2837 -75.825 86.0784 -25.9024 -8.96627 8.37177 -47.9538 0.0073157 -9.75328 -0.898632 5.96721 -74.588 -11.6424 105.551 -85.4827 -22.7542 -15.0054 -162.031 85.5237 179.68 -1.79283 0.0786576 -9.37562 37.4218 7.43155 9.20744 -25.2434 2.90744 -1.13763 
-1.136 11.8021 -56.5586 169.35 3.25554 174.23 -152.151 17.7664 98.8242 -42.8246 -14.8374 -11.9662 48.326 -12.5785 -10.3095 20.3338 -6.12182 16.8817 168.99 4.37723 84.2851 -17.0153 18.5647 1.196 56.2412 20.8017 15.9348 18.9831 13.9789 -3.17802 -1.02145 7.78512 -90.7495 11.2904 -2.3817 -1.25557 -0.378873 -2.43464 -1.14951 -22.9212 -1.89428 -1.91338 -2.90861 -1.89428 -1.91339 103.054 15.3279 -75.6437 86.068 -25.8606 -9.02424 8.37329 -47.7466 0.00728653 -9.69291 -0.882992 5.84989 -74.5795 -11.7546 105.555 -85.5035 -22.6744 -15.1981 -161.991 85.6588 179.67 -1.47189 0.0653705 -9.33237 37.5154 7.22407 9.27985 -25.2086 2.65218 -1.08076 
-1.10334 11.7734 -56.5307 169.424 3.41342 174.045 -152.11 17.4801 98.6804 -42.7698 -14.8919 -11.9236 48.2127 -12.6092 -10.2037 20.3174 -6.01586 16.2045 168.886 4.4853 84.0302 -17.3834 18.3588 1.19619 56.2735 20.9999 16.3465 19.1865 13.7804 -3.48082 -1.02308 7.79512 -90.7241 11.2711 -2.37302 -1.20647 -0.398133 -2.42382 -1.10083 -22.9409 -1.90076 -1.86398 -2.9283 -1.90077 -1.86397 103.045 15.3504 -75.7112 86.0289 -25.8492 -8.99683 8.40554 -47.7615 0.00728862 -9.60938 -0.874628 5.84529 -74.591 -11.6136 105.548 -85.5917 -22.601 -15.1689 -162.032 85.4331 179.686 -1.576 0.0729998 -9.20189 37.4394 7.3236 9.22219 -25.3341 2.81463 -1.22582 
-1.11589 11.7915 -56.5129 169.366 3.46072 174.064 -152.251 17.5263 98.6667 -42.8044 -14.6022 -11.814 48.0521 -12.7509 -10.1126 19.782 -6.04842 14.5777 168.866 4.43139 84.0262 -17.417 18.421 1.22604 56.2862 20.9939 16.449 18.9381 14.0277 -3.12833 -1.02918 7.7932 -90.7248 11.2749 -2.3856 -1.20664 -0.394307 -2.43638 -1.10045 -22.9373 -1.9127 -1.8679 -2.92461 -1.9127 -1.86792 103.033 15.335 -75.8111 86.1019 -25.6406 -8.83945 8.37524 -47.8653 0.0073032 -9.91631 -0.896081 5.74725 -74.6184 -11.6484 105.468 -85.4765 -22.6849 -15.0294 -162.103 85.5089 179.681 -1.3339 0.0620056 -9.13059 37.3955 7.22362 9.23809 -25.1968 2.70568 -1.1848 
-1.0997 11.7744 -56.5265 169.424 3.62755 173.952 -152.192 17.3246 98.6545 -42.7618 -14.3469 -11.8567 47.9264 -12.8797 -10.0048 20.0321 -5.8668 14.3541 168.756 4.34418 83.8517 -17.4877 18.1499 1.26264 56.1881 21.0657 16.4185 19.0591 13.8052 -2.95109 -1.02155 7.80714 -90.711 11.2474 -2.36383 -1.18192 -0.421848 -2.41355 -1.07671 -22.9648 -1.89936 -1.83779 -2.95217 -1.89936 -1.8378 103.037 15.3105 -75.7965 86.1411 -25.7466 -8.7744 8.39921 -47.9539 0.00731571 -9.98887 -0.915455 5.8986 -74.6327 -11.6628 105.427 -85.4527 -22.6646 -15.0285 -162.114 85.4559 179.684 -1.60142 0.0734987 -9.15096 37.3125 7.05 9.29054 -24.8212 2.49723 -1.07982 
-1.11285 11.7969 -56.539 169.273 3.4332 174.065 -152.42 17.5396 98.614 -42.7329 -14.4106 -11.7836 47.9508 -12.9122 -10.0424 20.1 -5.81158 14.2546 168.919 4.26162 84.0819 -17.0064 18.229 1.18536 56.005 21.1106 16.3354 19.2172 13.6553 -3.20079 -1.04463 7.7798 -90.724 11.3016 -2.41602 -1.20121 -0.367576 -2.46654 -1.09368 -22.9109 -1.94335 -1.87189 -2.89828 -1.94334 -1.87188 103.026 15.2859 -75.8918 86.1472 -25.719 -8.80275 8.4323 -48.0714 0.00733241 -9.85082 -0.905906 5.94786 -74.626 -11.5656 105.461 -85.4029 -22.638 -14.9585 -162.197 85.4446 179.685 -1.60195 0.0754785 -9.06074 37.1483 7.11054 9.17647 -24.1346 2.587 -0.909317 
-1.12694 11.7898 -56.5482 169.263 3.52011 173.931 -152.501 17.4025 98.4685 -42.7699 -14.7886 -11.7077 48.2083 -12.6575 -10.0804 19.6982 -6.03177 14.209 168.857 4.1681 83.9263 -16.9108 18.1157 1.18125 55.9039 21.3012 16.4409 19.2022 13.7211 -3.35435 -1.04461 7.79347 -90.7117 11.2746 -2.41016 -1.17808 -0.394492 -2.45967 -1.07083 -22.938 -1.94471 -1.84807 -2.92541 -1.94471 -1.84808 103.022 15.302 -75.9192 86.2415 -25.4243 -8.64973 8.35427 -48.2454 0.00735733 -9.59002 -0.887243 6.02197 -74.6105 -11.5394 105.507 -85.5077 -22.5347 -15.0921 -162.132 85.285 179.696 -1.52961 0.0732173 -9.25443 37.1536 7.07479 9.10784 -23.7956 2.53627 -0.673204 
-1.10714 11.7727 -56.555 169.306 3.73074 173.869 -152.616 17.168 98.4021 -42.8009 -15.0065 -11.5917 48.4796 -12.3571 -10.1854 19.7694 -6.05002 14.5485 168.785 4.06949 83.8182 -17.072 18.1231 1.16438 56.0771 21.1929 16.5754 19.1371 13.8789 -3.57695 -1.05312 7.81297 -90.6975 11.2361 -2.42036 -1.1499 -0.433027 -2.46862 -1.04222 -22.977 -1.96291 -1.82427 -2.96432 -1.9629 -1.82426 103.008 15.2419 -76.0622 86.2318 -25.4689 -8.48045 8.38413 -48.1065 0.00733741 -9.94993 -0.939329 6.21306 -74.6191 -11.5374 105.484 -85.4795 -22.6026 -14.9468 -162.176 85.74 179.663 -1.44899 0.0682457 -9.01569 37.0895 6.99333 9.00718 -23.4043 2.47384 -0.481398 
-1.10345 11.7728 -56.5591 169.277 3.74725 173.857 -152.635 17.1106 98.4236 -42.6627 -14.7147 -11.6388 48.284 -12.5692 -9.87915 20.6393 -5.56237 14.6046 168.47 4.13427 83.6057 -17.2807 17.7932 1.53719 56.1017 20.9774 16.5025 19.2147 13.6657 -3.22459 -1.06779 7.81305 -90.6948 11.2358 -2.44828 -1.14165 -0.433255 -2.49614 -1.03274 -22.9777 -1.99201 -1.8248 -2.96501 -1.99201 -1.82479 102.977 15.1926 -76.3351 86.4774 -25.6777 -8.08911 8.38595 -48.5699 0.00740442 -10.3496 -0.989313 6.33303 -74.658 -11.5595 105.375 -85.2364 -22.5915 -14.6587 -162.458 85.7216 179.665 -1.05086 0.0529456 -8.84111 37.0549 7.09991 8.87087 -23.4072 2.61693 -0.340287 
-1.14642 11.8438 -56.4848 169.391 3.08252 174.155 -152.242 17.9831 98.7005 -43.0921 -14.5179 -12.0011 48.681 -12.3357 -9.99899 19.6518 -6.20003 15.0162 168.629 4.57863 83.9835 -17.155 18.3442 1.66339 56.1034 20.4825 15.7006 19.0362 13.7769 -2.74509 -1.04171 7.75869 -90.7366 11.3437 -2.41621 -1.22495 -0.325528 -2.46779 -1.11738 -22.8686 -1.9364 -1.89458 -2.85597 -1.93641 -1.89457 102.909 15.2099 -76.8866 86.947 -27.1616 -7.31759 8.65449 -49.9889 0.00762058 -10.763 -1.02916 6.32631 -74.671 -11.5634 105.34 -85.0537 -22.499 -14.4464 -162.72 85.5296 179.679 -0.678722 0.0416585 -8.48123 37.2907 6.99346 8.91503 -23.6617 2.4615 -0.290496 
-1.19205 11.8041 -56.3161 169.852 2.84122 174.118 -152.021 18.3546 98.7737 -43.5654 -14.5566 -12.2025 48.6394 -12.4574 -9.91919 20.1336 -5.89326 14.8505 167.596 5.10737 83.1133 -17.9705 19.6871 2.61191 55.5228 20.2982 14.9116 19.7927 12.9668 -3.64964 -0.992855 7.75427 -90.7284 11.3527 -2.31523 -1.21859 -0.316646 -2.36661 -1.11548 -22.8587 -1.842 -1.85815 -2.84599 -1.842 -1.85814 102.847 15.2454 -77.3763 87.5051 -29.1023 -6.58271 8.77527 -51.9945 0.00795721 -9.56171 -0.892387 6.12198 -74.6171 -11.5013 105.496 -85.3469 -22.4636 -14.7819 -162.404 85.2368 179.699 -0.327835 0.0309764 -8.56695 37.5936 7.09795 8.9177 -24.5778 2.66412 -0.933315 
-1.24079 11.7195 -56.1518 170.254 3.19044 173.691 -152.447 18.0823 98.4658 -44.2663 -15.1527 -12.1286 48.8755 -12.5042 -10.1724 19.9361 -5.98425 14.716 165.178 5.13866 80.9069 -18.6915 19.0718 4.86186 54.4297 19.5706 9.59617 21.8147 9.97786 -3.17167 -0.974993 7.79893 -90.6753 11.2649 -2.25467 -1.12133 -0.404418 -2.30184 -1.02098 -22.9467 -1.81347 -1.74718 -2.93409 -1.81346 -1.74719 102.866 15.3778 -77.181 87.4675 -30.6171 -7.33017 9.29278 -53.1612 0.00817182 -9.71817 -0.891801 6.01153 -74.6055 -11.5249 105.523 -85.5493 -22.6311 -14.7584 -162.312 83.1542 179.79 -2.10939 0.0896775 -8.78921 37.6685 7.11441 8.85117 -24.6469 2.69075 -0.862274 
-1.58208 11.8737 -55.9975 171.135 2.28484 174.317 -153.433 19.247 98.6179 -44.7852 -16.2159 -11.6888 48.8829 -12.8906 -10.1785 18.9808 -6.16238 12.7031 163.685 5.70957 80.6016 -18.6761 18.1111 6.91289 53.3908 18.287 5.1429 23.4099 7.7787 -3.47868 -0.879275 7.72365 -90.7456 11.4143 -2.09746 -1.27316 -0.255454 -2.15146 -1.17958 -22.7945 -1.61792 -1.84467 -2.78184 -1.61792 -1.84468 102.775 15.6148 -77.8655 87.7668 -34.4598 -8.10451 10.5031 -55.2787 0.00860196 -9.07353 -0.853314 6.49742 -74.6321 -11.5178 105.453 -85.5355 -21.633 -14.5098 -163.126 78.4308 179.875 -1.22565 0.0513552 -8.22993 37.8297 7.17783 8.74466 -24.996 2.74302 -0.639401 
